<svg xmlns="http://www.w3.org/2000/svg" width="30.953" height="31.642" viewBox="0 0 30.953 31.642">
  <defs>
    <style>
      .cls-1 {
        fill: rgba(0,0,0,0);
      }

      .cls-2 {
        fill: #2b2d67;
      }

      .cls-3 {
        fill: #26e933;
      }
    </style>
  </defs>
  <g id="Groupe_163820" data-name="Groupe 163820" transform="translate(-2953.803 -1614.297)">
    <g id="Groupe_163813" data-name="Groupe 163813" transform="translate(0 -26)">
      <g id="cog-line-settings-check-svgrepo-com" transform="translate(2954.553 1641.047)">
        <path id="Tracé_83948" data-name="Tracé 83948" class="cls-1" d="M21.281,33.142h-6.7l-.923-4.152a11.707,11.707,0,0,1-3.046-1.761l-4.06,1.278-3.349-5.8L6.341,19.83a11.866,11.866,0,0,1,0-3.518L3.206,13.436l3.349-5.8,4.06,1.278a11.709,11.709,0,0,1,3.046-1.761L14.583,3h6.7L22.2,7.152A11.711,11.711,0,0,1,25.25,8.913l4.06-1.278,3.349,5.8-3.136,2.876a11.864,11.864,0,0,1,0,3.518l3.136,2.876-3.349,5.8-4.06-1.278A11.706,11.706,0,0,1,22.2,28.99Z" transform="translate(-3.206 -3)"/>
        <path id="Tracé_83948_-_Contour" data-name="Tracé 83948 - Contour" class="cls-2" d="M21.281,33.892h-6.7a.75.75,0,0,1-.732-.587l-.838-3.77a12.439,12.439,0,0,1-2.547-1.473L6.78,29.222a.75.75,0,0,1-.875-.34l-3.349-5.8a.75.75,0,0,1,.143-.928l2.848-2.612a12.626,12.626,0,0,1,0-2.941L2.7,13.989a.75.75,0,0,1-.143-.928l3.349-5.8a.75.75,0,0,1,.875-.34l3.686,1.16a12.441,12.441,0,0,1,2.547-1.473l.838-3.77a.75.75,0,0,1,.732-.587h6.7a.75.75,0,0,1,.732.587l.838,3.77A12.443,12.443,0,0,1,25.4,8.08l3.686-1.16a.75.75,0,0,1,.875.34l3.349,5.8a.75.75,0,0,1-.143.928L30.318,16.6a12.63,12.63,0,0,1,0,2.941l2.847,2.612a.75.75,0,0,1,.143.928l-3.349,5.8a.75.75,0,0,1-.875.34L25.4,28.062a12.437,12.437,0,0,1-2.547,1.473l-.838,3.77A.75.75,0,0,1,21.281,33.892Zm-6.1-1.5h5.5l.792-3.565a.75.75,0,0,1,.459-.536,10.944,10.944,0,0,0,2.85-1.648.75.75,0,0,1,.694-.13l3.486,1.1,2.748-4.759-2.692-2.469a.75.75,0,0,1-.235-.664,11.113,11.113,0,0,0,0-3.295.75.75,0,0,1,.235-.664l2.692-2.469L28.961,8.531l-3.486,1.1a.75.75,0,0,1-.694-.13,10.95,10.95,0,0,0-2.85-1.648.75.75,0,0,1-.459-.536L20.68,3.75h-5.5l-.792,3.565a.75.75,0,0,1-.459.536A10.948,10.948,0,0,0,11.084,9.5a.75.75,0,0,1-.694.13L6.9,8.531,4.156,13.29l2.692,2.469a.75.75,0,0,1,.235.664,11.115,11.115,0,0,0,0,3.295.75.75,0,0,1-.235.664l-2.692,2.47L6.9,27.611l3.486-1.1a.75.75,0,0,1,.694.13,10.946,10.946,0,0,0,2.85,1.648.75.75,0,0,1,.459.536Z" transform="translate(-3.206 -3)"/>
      </g>
      <path id="Tracé_83920" data-name="Tracé 83920" class="cls-3" d="M-5261.123-22808.033a1.5,1.5,0,0,1-1.068-.447l-3.683-3.734a1.5,1.5,0,0,1,.015-2.121,1.5,1.5,0,0,1,2.121.016l2.608,2.645,7-7.2a1.5,1.5,0,0,1,2.121-.027,1.5,1.5,0,0,1,.028,2.121l-8.07,8.291a1.5,1.5,0,0,1-1.07.453Z" transform="translate(8228.34 24469.531)"/>
    </g>
  </g>
</svg>
