<svg xmlns="http://www.w3.org/2000/svg" width="26.024" height="27.369" viewBox="0 0 26.024 27.369">
  <path id="Tracé_84559" data-name="Tracé 84559" d="M50.97,25.638H45.362l-.577,1.732h15.2l-.614-1.732h-6.84l14.951-14.95a.948.948,0,0,0,0-1.343L58.41.278a.951.951,0,0,0-1.344,0L42.01,15.336a.949.949,0,0,0,0,1.343Zm5.453-22.03L54.2,12.515,45.329,14.7ZM55.206,14.222a.946.946,0,0,0,.693-.692L58.515,3.07l6.946,6.947L51.748,23.729l-6.942-6.942Z" transform="translate(-41.731)" fill="#1990ff"/>
</svg>
