<svg id="sliders-icon" xmlns="http://www.w3.org/2000/svg" width="14.869" height="14.948" viewBox="0 0 14.869 14.948">
  <defs>
    <style>
      .cls-1 {
        fill: #2b2d67;
        fill-rule: evenodd;
      }
    </style>
  </defs>
  <path id="Tracé_84522" data-name="Tracé 84522" class="cls-1" d="M14.869,1.5V2.785a.31.31,0,0,1-.327.286H9.47a2.144,2.144,0,0,1-3.867,0H.327A.311.311,0,0,1,0,2.785V1.5a.31.31,0,0,1,.327-.286H5.6a2.144,2.144,0,0,1,3.866,0h5.072a.31.31,0,0,1,.328.286ZM6.03,13.732a2.145,2.145,0,0,1-3.867,0H.327A.31.31,0,0,1,0,13.446V12.164a.31.31,0,0,1,.327-.286H2.163a2.143,2.143,0,0,1,3.866,0h8.512a.31.31,0,0,1,.327.286v1.282a.311.311,0,0,1-.327.286Zm6.636-5.249a2.144,2.144,0,0,1-3.867,0H.327A.311.311,0,0,1,0,8.2V6.916A.31.31,0,0,1,.327,6.63H8.8a2.144,2.144,0,0,1,3.866,0h1.876a.31.31,0,0,1,.327.286V8.2a.31.31,0,0,1-.327.286H12.666Z"/>
</svg>
