<svg xmlns="http://www.w3.org/2000/svg" width="14.773" height="17.1" viewBox="0 0 14.773 17.1">
  <g id="Groupe_164069" data-name="Groupe 164069" transform="translate(-584.482 -788.375)">
    <g id="Groupe_163262" data-name="Groupe 163262" transform="translate(584.482 788.375)">
      <g id="Union_1" data-name="Union 1" transform="translate(0 0)" fill="none" stroke-linecap="round" stroke-linejoin="round">
        <path d="M3,17.1a3,3,0,0,1-3-3V4.509a3,3,0,0,1,3-3H4.879A2.669,2.669,0,0,1,7.387,0,2.668,2.668,0,0,1,9.895,1.509h1.879a3,3,0,0,1,3,3V14.1a3,3,0,0,1-3,3Z" stroke="none"/>
        <path d="M 11.77379989624023 16.10000038146973 C 12.87644004821777 16.10000038146973 13.77350044250488 15.20293998718262 13.77350044250488 14.10029983520508 L 13.77350044250488 4.509000301361084 C 13.77350044250488 3.406360149383545 12.87644004821777 2.509300231933594 11.77379989624023 2.509300231933594 L 9.894579887390137 2.509300231933594 C 9.490389823913574 2.509300231933594 9.125940322875977 2.265980243682861 8.970980644226074 1.892660140991211 C 8.752820014953613 1.367080211639404 8.101550102233887 1.000000238418579 7.387200355529785 1.000000238418579 C 6.672340393066406 1.000000238418579 6.02068042755127 1.367090225219727 5.802490234375 1.8927001953125 C 5.647530078887939 2.265990257263184 5.283090114593506 2.509300231933594 4.878910064697266 2.509300231933594 L 2.999700307846069 2.509300231933594 C 1.89706027507782 2.509300231933594 1.000000238418579 3.406360149383545 1.000000238418579 4.509000301361084 L 1.000000238418579 14.10029983520508 C 1.000000238418579 15.20293998718262 1.89706027507782 16.10000038146973 2.999700307846069 16.10000038146973 L 11.77379989624023 16.10000038146973 M 11.77379989624023 17.10000038146973 L 2.999700307846069 17.10000038146973 C 1.342800259590149 17.10000038146973 2.212524350397871e-07 15.75720024108887 2.212524350397871e-07 14.10029983520508 L 2.212524350397871e-07 4.509000301361084 C 2.212524350397871e-07 2.852100133895874 1.342800259590149 1.509300231933594 2.999700307846069 1.509300231933594 L 4.878910064697266 1.509300231933594 C 5.24392032623291 0.6300202012062073 6.229120254516602 1.907348661234209e-07 7.387200355529785 1.907348661234209e-07 C 8.544569969177246 1.907348661234209e-07 9.529610633850098 0.6300202012062073 9.894579887390137 1.509300231933594 L 11.77379989624023 1.509300231933594 C 13.43070030212402 1.509300231933594 14.77350044250488 2.852100133895874 14.77350044250488 4.509000301361084 L 14.77350044250488 14.10029983520508 C 14.77350044250488 15.75720024108887 13.43070030212402 17.10000038146973 11.77379989624023 17.10000038146973 Z" stroke="none" fill="#1990ff"/>
      </g>
      <circle id="Ellipse_9443" data-name="Ellipse 9443" cx="0.231" cy="0.231" r="0.231" transform="translate(7.156 1.849)" fill="#2b2d67" stroke="#1990ff" stroke-width="1"/>
      <line id="Ligne_270" data-name="Ligne 270" x2="13.473" transform="translate(0.539 4.637)" fill="none" stroke="#1990ff" stroke-linecap="round" stroke-width="1"/>
      <g id="Groupe_163263" data-name="Groupe 163263" transform="translate(3.311 7.052)">
        <circle id="Ellipse_9444" data-name="Ellipse 9444" cx="0.575" cy="0.575" r="0.575" transform="translate(0)" fill="#1990ff"/>
        <circle id="Ellipse_9445" data-name="Ellipse 9445" cx="0.575" cy="0.575" r="0.575" transform="translate(0 2.848)" fill="#1990ff"/>
        <circle id="Ellipse_9446" data-name="Ellipse 9446" cx="0.575" cy="0.575" r="0.575" transform="translate(0 5.696)" fill="#1990ff"/>
        <rect id="Rectangle_148452" data-name="Rectangle 148452" width="5.979" height="1.15" rx="0.575" transform="translate(1.84)" fill="#1990ff"/>
        <rect id="Rectangle_148453" data-name="Rectangle 148453" width="5.979" height="1.15" rx="0.575" transform="translate(1.84 2.848)" fill="#1990ff"/>
        <rect id="Rectangle_148454" data-name="Rectangle 148454" width="5.979" height="1.15" rx="0.575" transform="translate(1.84 5.696)" fill="#1990ff"/>
      </g>
    </g>
  </g>
</svg>
