<svg xmlns="http://www.w3.org/2000/svg" width="18.18" height="15.324" viewBox="0 0 18.18 15.324">
  <g id="Groupe_163798" data-name="Groupe 163798" transform="translate(-1214.25 -266.073)">
    <path id="Tracé_83295" data-name="Tracé 83295" d="M13.131,20.3a.75.75,0,0,1-.75-.75V18.033A2.285,2.285,0,0,0,10.1,15.75H4.033A2.285,2.285,0,0,0,1.75,18.033v1.516a.75.75,0,1,1-1.5,0V18.033A3.787,3.787,0,0,1,4.033,14.25H10.1a3.787,3.787,0,0,1,3.783,3.783v1.516A.75.75,0,0,1,13.131,20.3Z" transform="translate(1214 261.098)" fill="#ffffff"/>
    <path id="Ellipse_9417" data-name="Ellipse 9417" d="M3-.75A3.75,3.75,0,1,1-.75,3,3.754,3.754,0,0,1,3-.75Zm0,6A2.25,2.25,0,1,0,.75,3,2.253,2.253,0,0,0,3,5.25Z" transform="translate(1218.34 266.824)" fill="#ffffff"/>
    <path id="Tracé_83296" data-name="Tracé 83296" d="M22.275,20.33a.75.75,0,0,1-.75-.75V18.064a2.283,2.283,0,0,0-1.712-2.208.75.75,0,1,1,.375-1.452,3.783,3.783,0,0,1,2.837,3.66V19.58A.75.75,0,0,1,22.275,20.33Z" transform="translate(1209.405 261.067)" fill="#ffffff"/>
    <path id="Tracé_83297" data-name="Tracé 83297" d="M16,9.756a.75.75,0,0,1-.185-1.477,2.283,2.283,0,0,0,0-4.423A.75.75,0,1,1,16.186,2.4a3.783,3.783,0,0,1,0,7.329A.752.752,0,0,1,16,9.756Z" transform="translate(1210.373 263.969)" fill="#ffffff"/>
  </g>
</svg>
